# xmcd
#
# Track frame offsets:
#	150
#	16210
#	32337
#	41975
#	59020
#	74127
#	91360
#	108812
#	126515
#	145962
#	160685
#	182362
#	196760
#	208072
#
# Disc length: 2970 seconds
#
# Revision: 2
# Processed by: cddbd v1.4PL0 Copyright (c) Steve Scherf et al.
# Submitted via: EZCDDA 4.3.2
#
DISCID=c70b980e
DTITLE=Milionário and José Rico - Só As Melhores
DYEAR=1900
DGENRE=
TTITLE0=Viva a Vida!
TTITLE1=Sonho de um Caminhoneiro
TTITLE2=Estrada da Vida
TTITLE3=Meu Mundo Vazio (Sereia)
TTITLE4=Duas Camisas (Você Agora Vai Decidir)
TTITLE5=Tribunal do Amor
TTITLE6=Praia Deserta
TTITLE7=Vontade Dividida
TTITLE8=Sonhei Com Você
TTITLE9=Cabecinha no Ombro
TTITLE10=Lembrança
TTITLE11=Paixão de um Homem
TTITLE12=O Tropeiro
TTITLE13=Gangorra
EXTD=
EXTT0=
EXTT1=
EXTT2=
EXTT3=
EXTT4=
EXTT5=
EXTT6=
EXTT7=
EXTT8=
EXTT9=
EXTT10=
EXTT11=
EXTT12=
EXTT13=
PLAYORDER=
